<svg width="882.166931" height="184.210510" viewBox="0 0 882.167 184.211" fill="none" xmlns="http://www.w3.org/2000/svg" xmlns:xlink="http://www.w3.org/1999/xlink">
	<desc>
			Created with Pixso.
	</desc>
	<defs>
		<clipPath id="clip145_2413">
			<rect id="logo1" width="200.000000" height="184.210526" fill="white" fill-opacity="0"/>
		</clipPath>
	</defs>
	<rect id="组件 6" width="882.000000" height="184.210571" fill="#FFFFFF" fill-opacity="0"/>
	<g clip-path="url(#clip145_2413)">
		<rect id="组件 1" width="200.000000" height="184.210526" fill="#FFFFFF" fill-opacity="0"/>
		<path id="合并" d="M200 26.31L147.84 0L147.36 0L147.36 184.21L200 184.21L200 26.31Z" fill="#FFFFFF" fill-opacity="1.000000" fill-rule="evenodd"/>
		<path id="合并" d="M0 26.31L52.15 0L52.63 0L52.63 184.21L0 184.21L0 26.31Z" fill="#FFFFFF" fill-opacity="1.000000" fill-rule="evenodd"/>
		<path id="合并" d="M147.36 52.63L147.36 92.57L100.42 144.73L99.57 144.73L52.63 92.57L52.63 52.63L52.63 0L53.05 0L100 52.15L146.94 0L147.36 0L147.36 52.63Z" fill="#CCCCCC" fill-opacity="1.000000" fill-rule="evenodd"/>
	</g>
	<rect id="A" width="100.000000" height="100.000000" transform="translate(302.000000 42.000061)" fill="#FFFFFF" fill-opacity="0"/>
	<rect id="V" width="100.000000" height="100.000000" transform="matrix(1 0 0 -1 302 142)" fill="#FFFFFF" fill-opacity="0"/>
	<rect id="K2" width="66.886749" height="100.000000" transform="matrix(1 0 0 -1 302 142)" fill="#FFFFFF" fill-opacity="0"/>
	<path id="减去顶层" d="M301.974 158.667L302.005 158.667L302.005 158.667L301.974 158.667L301.974 158.667ZM302 142L335.43 42.0787L335.43 42.0002L301.974 42.0002L342.122 42.0002L342.122 42.0912L307.741 142L302 142Z" clip-rule="evenodd" fill="#FFFFFF" fill-opacity="1.000000" fill-rule="evenodd"/>
	<path id="减去顶层" d="M315.356 158.667L315.388 158.667L315.388 158.667L315.356 158.667L315.356 158.667ZM315.383 142L348.813 42.0787L348.813 42.0002L355.504 42.0002L355.504 42.0912L321.123 142L315.383 142Z" clip-rule="evenodd" fill="#FFFFFF" fill-opacity="1.000000" fill-rule="evenodd"/>
	<path id="减去顶层" d="M328.739 158.667L328.77 158.667L328.771 158.667L328.739 158.667L328.739 158.667ZM328.765 142L362.196 42.0783L362.196 42.0002L368.887 42.0002L368.887 42.0912L334.506 142L328.765 142Z" clip-rule="evenodd" fill="#FFFFFF" fill-opacity="1.000000" fill-rule="evenodd"/>
	<rect id="K2" width="66.886749" height="100.000000" transform="translate(402.000000 142.000061) rotate(180.000000)" fill="#FFFFFF" fill-opacity="0"/>
	<path id="减去顶层" d="M402.026 158.667L401.995 158.667L401.995 158.667L402.026 158.667L402.026 158.667ZM402 142L368.57 42.0787L368.57 42.0002L402.026 42.0002L361.878 42.0002L361.878 42.0913L396.259 142L402 142Z" clip-rule="evenodd" fill="#FFFFFF" fill-opacity="1.000000" fill-rule="evenodd"/>
	<rect id="N2" x="388.000000" y="112.000061" width="46.000000" height="7.000000" transform="rotate(180 388.000000 112.000061)" fill="#FFFFFF" fill-opacity="1.000000"/>
	<rect id="B" width="100.000000" height="100.000000" transform="translate(422.000000 42.000061)" fill="#FFFFFF" fill-opacity="0"/>
	<rect id="K3" width="33.333336" height="100.000000" transform="translate(422.000000 42.000061)" fill="#FFFFFF" fill-opacity="0"/>
	<rect id="矩形 2" x="422.000000" y="42.000061" width="6.666667" height="100.000000" fill="#FFFFFF" fill-opacity="1.000000"/>
	<rect id="矩形 2" x="435.333344" y="42.000061" width="6.666667" height="100.000000" fill="#FFFFFF" fill-opacity="1.000000"/>
	<rect id="矩形 2" x="448.666687" y="42.000061" width="6.666667" height="100.000000" fill="#FFFFFF" fill-opacity="1.000000"/>
	<path id="减去顶层" d="M496 42.0182L496 50.0259C506.029 50.546 514 58.8421 514 69.0001C514 79.158 506.029 87.4542 496 87.9742L496 96.0259C506.029 96.546 514 104.842 514 115C514 125.158 506.029 133.454 496 133.974L496 141.982C510.448 141.456 522 129.577 522 115C522 105.277 516.86 96.7538 509.149 92.0001C516.86 87.2463 522 78.7234 522 69.0001C522 54.4232 510.448 42.5443 496 42.0182Z" clip-rule="evenodd" fill="#FFFFFF" fill-opacity="1.000000" fill-rule="evenodd"/>
	<rect id="矩形 18" x="462.500000" y="42.000061" width="33.500000" height="8.000000" fill="#FFFFFF" fill-opacity="1.000000"/>
	<rect id="矩形 18" x="462.000000" y="88.000061" width="34.000000" height="8.000000" fill="#FFFFFF" fill-opacity="1.000000"/>
	<rect id="矩形 18" x="463.000000" y="134.000061" width="33.000000" height="8.000000" fill="#FFFFFF" fill-opacity="1.000000"/>
	<rect id="O" width="100.000000" height="99.999947" transform="translate(542.000000 41.999939)" fill="#FFFFFF" fill-opacity="0"/>
	<rect id="O3" x="575.333313" y="135.333313" width="33.333317" height="6.666663" fill="#FFFFFF" fill-opacity="1.000000"/>
	<rect id="O2" x="575.333313" y="41.999939" width="33.333317" height="6.666663" fill="#FFFFFF" fill-opacity="1.000000"/>
	<rect id="O4" width="33.333317" height="99.999954" transform="translate(608.666687 41.999939)" fill="#FFFFFF" fill-opacity="0"/>
	<rect id="矩形 2" x="608.666687" y="41.999939" width="6.666663" height="99.999954" fill="#FFFFFF" fill-opacity="1.000000"/>
	<rect id="矩形 2" x="622.000000" y="41.999939" width="6.666663" height="99.999954" fill="#FFFFFF" fill-opacity="1.000000"/>
	<rect id="矩形 2" x="635.333313" y="41.999939" width="6.666663" height="99.999954" fill="#FFFFFF" fill-opacity="1.000000"/>
	<rect id="O1" width="33.333317" height="99.999954" transform="translate(542.000000 41.999939)" fill="#FFFFFF" fill-opacity="0"/>
	<rect id="矩形 2" x="542.000000" y="41.999939" width="6.666663" height="99.999954" fill="#FFFFFF" fill-opacity="1.000000"/>
	<rect id="矩形 2" x="555.333313" y="41.999939" width="6.666663" height="99.999954" fill="#FFFFFF" fill-opacity="1.000000"/>
	<rect id="矩形 2" x="568.666626" y="41.999939" width="6.666663" height="99.999954" fill="#FFFFFF" fill-opacity="1.000000"/>
	<rect id="U" width="100.000000" height="100.000000" transform="translate(762.000000 142.000061) rotate(180.000000)" fill="#FFFFFF" fill-opacity="0"/>
	<rect id="N3" width="33.333336" height="100.000000" transform="translate(695.333374 142.000061) rotate(180.000000)" fill="#FFFFFF" fill-opacity="0"/>
	<rect id="矩形 2" x="695.333374" y="142.000061" width="6.666667" height="100.000000" transform="rotate(180 695.333374 142.000061)" fill="#FFFFFF" fill-opacity="1.000000"/>
	<rect id="矩形 2" x="682.000061" y="142.000061" width="6.666667" height="100.000000" transform="rotate(180 682.000061 142.000061)" fill="#FFFFFF" fill-opacity="1.000000"/>
	<rect id="矩形 2" x="668.666687" y="142.000061" width="6.666667" height="100.000000" transform="rotate(180 668.666687 142.000061)" fill="#FFFFFF" fill-opacity="1.000000"/>
	<rect id="N2" x="728.666626" y="142.000061" width="33.333336" height="6.666666" transform="rotate(180 728.666626 142.000061)" fill="#FFFFFF" fill-opacity="1.000000"/>
	<rect id="N1" width="33.333332" height="100.000000" transform="translate(762.000000 142.000061) rotate(180.000000)" fill="#FFFFFF" fill-opacity="0"/>
	<rect id="矩形 2" x="762.000000" y="142.000061" width="6.666667" height="100.000000" transform="rotate(180 762.000000 142.000061)" fill="#FFFFFF" fill-opacity="1.000000"/>
	<rect id="矩形 2" x="748.666687" y="142.000061" width="6.666667" height="100.000000" transform="rotate(180 748.666687 142.000061)" fill="#FFFFFF" fill-opacity="1.000000"/>
	<rect id="矩形 2" x="735.333313" y="142.000061" width="6.666667" height="100.000000" transform="rotate(180 735.333313 142.000061)" fill="#FFFFFF" fill-opacity="1.000000"/>
	<rect id="T" width="100.000000" height="100.000000" transform="translate(782.000000 42.000061)" fill="#FFFFFF" fill-opacity="0"/>
	<rect id="N1" width="33.388977" height="100.000000" transform="translate(815.555908 42.000061)" fill="#FFFFFF" fill-opacity="0"/>
	<rect id="矩形 2" x="815.555908" y="42.000061" width="6.677796" height="100.000000" fill="#FFFFFF" fill-opacity="1.000000"/>
	<rect id="矩形 2" x="828.911499" y="42.000061" width="6.677796" height="100.000000" fill="#FFFFFF" fill-opacity="1.000000"/>
	<rect id="矩形 2" x="842.267090" y="42.000061" width="6.677796" height="100.000000" fill="#FFFFFF" fill-opacity="1.000000"/>
	<rect id="N2" x="782.000000" y="42.000061" width="100.166931" height="6.500000" fill="#FFFFFF" fill-opacity="1.000000"/>
</svg>
