<svg width="343.130859" height="317.284058" viewBox="0 0 343.131 317.284" fill="none" xmlns="http://www.w3.org/2000/svg" xmlns:xlink="http://www.w3.org/1999/xlink">
	<desc>
			Created with Pixso.
	</desc>
	<defs>
		<clipPath id="clip147_2381">
			<rect id="tx-六边形" width="409.600006" height="409.600006" transform="translate(-21.706055 -46.079956)" fill="white" fill-opacity="0"/>
		</clipPath>
	</defs>
	<path id="合并" d="M251.072 0L171.259 138.24L58.0121 138.24L114.641 40.156L182.272 40.156L205.366 0.156006L91.5468 0.156006L0 158.72L91.5468 317.284L204.733 317.284L181.639 277.284L114.641 277.284L57.4429 178.214L170.49 178.214L250.517 316.825L250.599 316.778L250.875 317.255L250.825 317.284L274.641 317.284L343.109 198.694L296.921 198.694L262.697 257.972L205.493 158.893L262.797 59.6405L296.943 118.784L343.131 118.784L274.641 0.156006L251.524 0.156006L251.478 0.234718L251.072 0Z" clip-rule="evenodd" fill="#FFFFFF" fill-opacity="1.000000" fill-rule="evenodd"/>
</svg>
