<svg width="100.000000" height="100.000000" viewBox="0 0 100 100" fill="none" xmlns="http://www.w3.org/2000/svg" xmlns:xlink="http://www.w3.org/1999/xlink">
	<desc>
			Created with Pixso.
	</desc>
	<defs>
		<clipPath id="clip145_2508">
			<rect id="引用" width="100.000000" height="100.000000" fill="white" fill-opacity="0"/>
		</clipPath>
	</defs>
	<g clip-path="url(#clip145_2508)">
		<path id="path" d="M39.27 18.99C23.58 29.06 14.87 40.79 13.13 54.17C10.41 74.99 29.04 85.19 38.47 76.03C47.91 66.87 42.26 55.24 35.42 52.07C28.59 48.89 24.41 49.99 25.14 45.75C25.87 41.5 35.59 29.73 44.13 24.24C44.7 23.76 44.91 22.83 44.37 22.12C44.01 21.65 43.3 20.74 42.26 19.37C41.34 18.18 40.46 18.22 39.27 18.99Z" fill="#FFFFFF" fill-opacity="1.000000" fill-rule="evenodd"/>
		<path id="path" d="M80.58 18.99C64.89 29.06 56.17 40.79 54.43 54.17C51.72 74.99 70.34 85.19 79.78 76.03C89.22 66.87 83.56 55.24 76.73 52.07C69.89 48.89 65.71 49.99 66.44 45.75C67.17 41.5 76.89 29.73 85.43 24.24C86 23.76 86.22 22.83 85.67 22.12C85.31 21.65 84.61 20.74 83.56 19.37C82.64 18.18 81.76 18.22 80.58 18.99Z" fill="#FFFFFF" fill-opacity="1.000000" fill-rule="evenodd"/>
	</g>
</svg>
