<svg width="100.000000" height="100.000000" viewBox="0 0 100 100" fill="none" xmlns="http://www.w3.org/2000/svg" xmlns:xlink="http://www.w3.org/1999/xlink">
	<desc>
			Created with Pixso.
	</desc>
	<defs>
		<clipPath id="clip131_2007">
			<rect id="about" width="100.000000" height="100.000000" fill="white" fill-opacity="0"/>
		</clipPath>
	</defs>
	<rect id="about" width="100.000000" height="100.000000" fill="#FFFFFF" fill-opacity="0"/>
	<g clip-path="url(#clip131_2007)">
		<path id="减去顶层" d="M50 23C35.0883 23 23 35.0883 23 50C23 64.9117 35.0883 77 50 77C64.9117 77 77 64.9117 77 50C77 35.0883 64.9117 23 50 23ZM50 33.8C48.2106 33.8 46.76 35.2506 46.76 37.04C46.76 38.8294 48.2106 40.28 50 40.28C51.7894 40.28 53.24 38.8294 53.24 37.04C53.24 35.2506 51.7894 33.8 50 33.8ZM50 44.26C48.6 44.26 47.5 45.36 47.5 46.76L47.5 64.04C47.5 65.44 48.6 66.54 50 66.54C51.4 66.54 52.5 65.44 52.5 64.04L52.5 46.76C52.5 45.36 51.4 44.26 50 44.26Z" clip-rule="evenodd" fill="#FFFFFF" fill-opacity="1.000000" fill-rule="evenodd"/>
	</g>
</svg>
