<svg width="100.000000" height="100.000000" viewBox="0 0 100 100" fill="none" xmlns="http://www.w3.org/2000/svg" xmlns:xlink="http://www.w3.org/1999/xlink">
	<desc>
			Created with Pixso.
	</desc>
	<defs>
		<clipPath id="clip132_2029">
			<rect id="加号" width="60.000000" height="60.000000" transform="translate(20.000000 20.000000)" fill="white" fill-opacity="0"/>
		</clipPath>
		<clipPath id="clip132_2023">
			<rect id="add" width="100.000000" height="100.000000" fill="white" fill-opacity="0"/>
		</clipPath>
	</defs>
	<rect id="add" width="100.000000" height="100.000000" fill="#FFFFFF" fill-opacity="0"/>
	<g clip-path="url(#clip132_2023)">
		<g clip-path="url(#clip132_2029)">
			<path id="path" d="M57.5 25L42.5 25L42.5 42.5L25 42.5L25 57.5L42.5 57.5L42.5 75L57.5 75L57.5 57.5L75 57.5L75 42.5L57.5 42.5L57.5 25Z" fill="#FFFFFF" fill-opacity="1.000000" fill-rule="nonzero"/>
			<path id="path" d="M42.5 25L42.5 42.5L25 42.5L25 57.5L42.5 57.5L42.5 75L57.5 75L57.5 57.5L75 57.5L75 42.5L57.5 42.5L57.5 25L42.5 25Z" stroke="#FFFFFF" stroke-opacity="1.000000" stroke-width="1.500000" stroke-linejoin="round"/>
		</g>
	</g>
</svg>
