<svg width="100.000000" height="100.000000" viewBox="0 0 100 100" fill="none" xmlns="http://www.w3.org/2000/svg" xmlns:xlink="http://www.w3.org/1999/xlink">
	<desc>
			Created with Pixso.
	</desc>
	<defs>
		<clipPath id="clip129_1839">
			<rect id="关闭" width="60.000000" height="60.000000" transform="translate(20.000000 20.000000)" fill="white" fill-opacity="0"/>
		</clipPath>
		<clipPath id="clip129_1838">
			<rect id="close" width="100.000000" height="100.000000" fill="white" fill-opacity="0"/>
		</clipPath>
	</defs>
	<rect id="close" width="100.000000" height="100.000000" fill="#FFFFFF" fill-opacity="0"/>
	<g clip-path="url(#clip129_1838)">
		<g clip-path="url(#clip129_1839)">
			<path id="path" d="M26.49 33.53L26.46 33.53C24.48 31.55 24.48 28.44 26.46 26.46C28.44 24.48 31.55 24.48 33.53 26.46L33.53 26.49L26.49 33.53ZM73.5 66.46L73.53 66.46C75.51 68.44 75.51 71.55 73.53 73.53C71.55 75.51 68.44 75.51 66.46 73.53L66.46 73.5L73.5 66.46Z" fill="#000000" fill-opacity="0" fill-rule="nonzero"/>
			<path id="path" d="M30 30L70 70" stroke="#6933AC" stroke-opacity="1.000000" stroke-width="10.000000" stroke-linejoin="round" stroke-linecap="round"/>
			<path id="path" d="M33.53 73.5L33.53 73.53C31.55 75.51 28.44 75.51 26.46 73.53C24.48 71.55 24.48 68.44 26.46 66.46L26.49 66.46L33.53 73.5ZM66.46 26.49L66.46 26.46C68.44 24.48 71.55 24.48 73.53 26.46C75.51 28.44 75.51 31.55 73.53 33.53L73.5 33.53L66.46 26.49Z" fill="#000000" fill-opacity="0" fill-rule="nonzero"/>
			<path id="path" d="M30 70L70 30" stroke="#6933AC" stroke-opacity="1.000000" stroke-width="10.000000" stroke-linejoin="round" stroke-linecap="round"/>
		</g>
	</g>
</svg>
