<svg width="100.000000" height="100.000000" viewBox="0 0 100 100" fill="none" xmlns="http://www.w3.org/2000/svg" xmlns:xlink="http://www.w3.org/1999/xlink">
	<desc>
			Created with Pixso.
	</desc>
	<defs>
		<clipPath id="clip132_2035">
			<rect id="删除" width="60.000000" height="60.000000" transform="translate(20.000000 20.000000)" fill="white" fill-opacity="0"/>
		</clipPath>
		<clipPath id="clip132_2031">
			<rect id="delete" width="100.000000" height="100.000000" fill="white" fill-opacity="0"/>
		</clipPath>
	</defs>
	<rect id="delete" width="100.000000" height="100.000000" fill="#FFFFFF" fill-opacity="0"/>
	<g clip-path="url(#clip132_2031)">
		<g clip-path="url(#clip132_2035)">
			<path id="path" d="M31.25 32.5L31.25 75L68.75 75L68.75 32.5L31.25 32.5Z" fill="#000000" fill-opacity="0" fill-rule="nonzero"/>
			<path id="path" d="M31.25 75L68.75 75L68.75 32.5L31.25 32.5L31.25 75Z" stroke="#6933AC" stroke-opacity="1.000000" stroke-width="5.000000" stroke-linejoin="round"/>
			<path id="path" d="M42.52 45.02L42.5 45C42.5 43.6 43.6 42.5 45 42.5C46.4 42.5 47.5 43.6 47.5 45L47.48 45.02L42.52 45.02ZM47.48 61.23L47.5 61.25C47.5 62.65 46.4 63.75 45 63.75C43.6 63.75 42.5 62.65 42.5 61.25L42.52 61.23L47.48 61.23Z" fill="#000000" fill-opacity="0" fill-rule="nonzero"/>
			<path id="path" d="M45 45L45 61.25" stroke="#6933AC" stroke-opacity="1.000000" stroke-width="5.000000" stroke-linejoin="round" stroke-linecap="round"/>
			<path id="path" d="M52.52 45.02L52.5 45C52.5 43.6 53.6 42.5 55 42.5C56.4 42.5 57.5 43.6 57.5 45L57.48 45.02L52.52 45.02ZM57.48 61.23L57.5 61.25C57.5 62.65 56.4 63.75 55 63.75C53.6 63.75 52.5 62.65 52.5 61.25L52.52 61.23L57.48 61.23Z" fill="#000000" fill-opacity="0" fill-rule="nonzero"/>
			<path id="path" d="M55 45L55 61.25" stroke="#6933AC" stroke-opacity="1.000000" stroke-width="5.000000" stroke-linejoin="round" stroke-linecap="round"/>
			<path id="path" d="M25.02 34.98L25 35C23.6 35 22.5 33.9 22.5 32.5C22.5 31.1 23.6 30 25 30L25.02 30.02L25.02 34.98ZM74.98 30.02L75 30C76.4 30 77.5 31.1 77.5 32.5C77.5 33.9 76.4 35 75 35L74.98 34.98L74.98 30.02Z" fill="#000000" fill-opacity="0" fill-rule="nonzero"/>
			<path id="path" d="M25 32.5L75 32.5" stroke="#6933AC" stroke-opacity="1.000000" stroke-width="5.000000" stroke-linejoin="round" stroke-linecap="round"/>
			<path id="path" d="M40 32.5L44.11 25L55.97 25L60 32.5L40 32.5Z" fill="#000000" fill-opacity="0" fill-rule="nonzero"/>
			<path id="path" d="M44.11 25L55.97 25L60 32.5L40 32.5L44.11 25Z" stroke="#6933AC" stroke-opacity="1.000000" stroke-width="5.000000" stroke-linejoin="round"/>
		</g>
	</g>
</svg>
