<svg width="100.000000" height="100.000000" viewBox="0 0 100 100" fill="none" xmlns="http://www.w3.org/2000/svg" xmlns:xlink="http://www.w3.org/1999/xlink">
	<desc>
			Created with Pixso.
	</desc>
	<defs>
		<clipPath id="clip133_2082">
			<rect id="文件夹-添加" width="60.000000" height="60.000000" transform="translate(20.000000 23.000000)" fill="white" fill-opacity="0"/>
		</clipPath>
		<clipPath id="clip133_2053">
			<rect id="directoryAdd" width="100.000000" height="100.000000" fill="white" fill-opacity="0"/>
		</clipPath>
	</defs>
	<rect id="directoryAdd" width="100.000000" height="100.000000" fill="#FFFFFF" fill-opacity="0"/>
	<g clip-path="url(#clip133_2053)">
		<g clip-path="url(#clip133_2082)">
			<path id="path" d="M26.25 33C26.25 31.61 27.36 30.5 28.75 30.5L43.75 30.5L50 38L71.25 38C72.63 38 73.75 39.11 73.75 40.5L73.75 73C73.75 74.38 72.63 75.5 71.25 75.5L28.75 75.5C27.36 75.5 26.25 74.38 26.25 73L26.25 33Z" fill="#000000" fill-opacity="0" fill-rule="nonzero"/>
			<path id="path" d="M28.75 30.5L43.75 30.5L50 38L71.25 38C72.63 38 73.75 39.11 73.75 40.5L73.75 73C73.75 74.38 72.63 75.5 71.25 75.5L28.75 75.5C27.36 75.5 26.25 74.38 26.25 73L26.25 33C26.25 31.61 27.36 30.5 28.75 30.5Z" stroke="#6933AC" stroke-opacity="1.000000" stroke-width="5.000000" stroke-linejoin="round"/>
			<path id="path" d="M42.52 59.23L42.5 59.25C41.1 59.25 40 58.15 40 56.75C40 55.35 41.1 54.25 42.5 54.25L42.52 54.27L42.52 59.23ZM57.48 54.27L57.5 54.25C58.9 54.25 60 55.35 60 56.75C60 58.15 58.9 59.25 57.5 59.25L57.48 59.23L57.48 54.27Z" fill="#000000" fill-opacity="0" fill-rule="nonzero"/>
			<path id="path" d="M42.5 56.75L57.5 56.75" stroke="#6933AC" stroke-opacity="1.000000" stroke-width="5.000000" stroke-linecap="round"/>
			<path id="path" d="M47.52 49.27L47.5 49.25C47.5 47.85 48.6 46.75 50 46.75C51.4 46.75 52.5 47.85 52.5 49.25L52.48 49.27L47.52 49.27ZM52.48 64.23L52.5 64.25C52.5 65.65 51.4 66.75 50 66.75C48.6 66.75 47.5 65.65 47.5 64.25L47.52 64.23L52.48 64.23Z" fill="#000000" fill-opacity="0" fill-rule="nonzero"/>
			<path id="path" d="M50 49.25L50 64.25" stroke="#6933AC" stroke-opacity="1.000000" stroke-width="5.000000" stroke-linecap="round"/>
		</g>
	</g>
</svg>
