<svg width="100.000000" height="100.000000" viewBox="0 0 100 100" fill="none" xmlns="http://www.w3.org/2000/svg" xmlns:xlink="http://www.w3.org/1999/xlink">
	<desc>
			Created with Pixso.
	</desc>
	<defs>
		<clipPath id="clip143_2374">
			<rect id="邮件" width="100.000000" height="100.000000" fill="white" fill-opacity="0"/>
		</clipPath>
	</defs>
	<g clip-path="url(#clip143_2374)">
		<path id="path" d="M50.5 9C27.57 8.99 9 27.55 9 50.46C9 68.58 20.61 83.98 36.79 89.64C38.97 90.19 38.64 88.64 38.64 87.58L38.64 80.39C26.06 81.87 25.55 73.54 24.7 72.15C23 69.24 18.96 68.5 20.17 67.11C23.03 65.63 25.95 67.48 29.34 72.48C31.79 76.1 36.56 75.49 38.98 74.89C39.51 72.71 40.64 70.76 42.2 69.25C29.16 66.91 23.73 58.96 23.73 49.5C23.73 44.91 25.24 40.69 28.21 37.29C26.32 31.68 28.38 26.87 28.66 26.16C34.05 25.68 39.65 30.02 40.09 30.36C43.15 29.53 46.64 29.1 50.56 29.1C54.49 29.1 57.99 29.55 61.08 30.39C62.13 29.59 67.32 25.86 72.33 26.32C72.6 27.03 74.62 31.72 72.84 37.26C75.84 40.67 77.37 44.93 77.37 49.53C77.37 59 71.9 66.97 58.83 69.27C59.39 69.82 59.89 70.42 60.33 71.07C60.77 71.72 61.14 72.41 61.44 73.13C61.75 73.86 61.97 74.6 62.13 75.37C62.28 76.14 62.36 76.92 62.36 77.71L62.36 88.14C62.43 88.97 62.36 89.8 63.75 89.8C80.17 84.26 92 68.75 92 50.47C92 27.55 73.41 9 50.5 9Z" fill="#FFFFFF" fill-opacity="1.000000" fill-rule="nonzero"/>
	</g>
</svg>
