<svg width="100.000000" height="100.000000" viewBox="0 0 100 100" fill="none" xmlns="http://www.w3.org/2000/svg" xmlns:xlink="http://www.w3.org/1999/xlink">
	<desc>
			Created with Pixso.
	</desc>
	<defs>
		<clipPath id="clip131_2003">
			<rect id="书籍1" width="60.000000" height="60.000000" transform="translate(20.000000 20.000000)" fill="white" fill-opacity="0"/>
		</clipPath>
		<clipPath id="clip131_1971">
			<rect id="instruction" width="100.000000" height="100.000000" fill="white" fill-opacity="0"/>
		</clipPath>
	</defs>
	<rect id="instruction" width="100.000000" height="100.000000" fill="#FFFFFF" fill-opacity="0"/>
	<g clip-path="url(#clip131_1971)">
		<g clip-path="url(#clip131_2003)">
			<path id="path" d="M28.75 66.25C28.75 56.62 28.75 33.75 28.75 33.75C28.75 29.6 32.1 26.25 36.25 26.25L63.75 26.25L63.75 58.75C63.75 58.75 42.79 58.75 36.25 58.75C32.12 58.75 28.75 62.1 28.75 66.25Z" fill="#FFFFFF" fill-opacity="1.000000" fill-rule="nonzero"/>
			<path id="path" d="M28.75 33.75C28.75 29.6 32.1 26.25 36.25 26.25L63.75 26.25L63.75 58.75C63.75 58.75 42.79 58.75 36.25 58.75C32.12 58.75 28.75 62.1 28.75 66.25C28.75 56.62 28.75 33.75 28.75 33.75Z" stroke="#FFFFFF" stroke-opacity="1.000000" stroke-width="3.000000" stroke-linejoin="round"/>
			<path id="path" d="M63.73 57.27L63.75 57.25C64.58 57.25 65.25 57.91 65.25 58.75C65.25 59.59 64.58 60.25 63.75 60.25L63.73 60.23L63.73 57.27ZM69.76 28.77L69.75 28.75C69.75 27.91 70.41 27.25 71.25 27.25C72.08 27.25 72.75 27.91 72.75 28.75L72.73 28.77L69.76 28.77Z" fill="#000000" fill-opacity="0" fill-rule="nonzero"/>
			<path id="path" d="M63.75 58.75C63.75 58.75 37.69 58.75 36.25 58.75C32.1 58.75 28.75 62.1 28.75 66.25C28.75 70.39 32.1 73.75 36.25 73.75C39.01 73.75 52.34 73.75 71.25 73.75L71.25 28.75" stroke="#FFFFFF" stroke-opacity="1.000000" stroke-width="3.000000" stroke-linejoin="round" stroke-linecap="round"/>
			<path id="path" d="M37.52 67.73L37.5 67.75C36.66 67.75 36 67.08 36 66.25C36 65.41 36.66 64.75 37.5 64.75L37.52 64.76L37.52 67.73ZM62.48 64.76L62.5 64.75C63.34 64.75 64 65.41 64 66.25C64 67.08 63.34 67.75 62.5 67.75L62.48 67.73L62.48 64.76Z" fill="#000000" fill-opacity="0" fill-rule="nonzero"/>
			<path id="path" d="M37.5 66.25L62.5 66.25" stroke="#FFFFFF" stroke-opacity="1.000000" stroke-width="3.000000" stroke-linejoin="round" stroke-linecap="round"/>
		</g>
	</g>
</svg>
