<svg width="100.000000" height="100.000000" viewBox="0 0 100 100" fill="none" xmlns="http://www.w3.org/2000/svg" xmlns:xlink="http://www.w3.org/1999/xlink">
	<desc>
			Created with Pixso.
	</desc>
	<defs>
		<clipPath id="clip143_2337">
			<rect id="邮件" width="100.000000" height="100.000000" fill="white" fill-opacity="0"/>
		</clipPath>
	</defs>
	<g clip-path="url(#clip143_2337)">
		<path id="合并" d="M12.3333 26.75L12.3333 77.25L87.6667 77.25L87.6667 26.75L52.4 53.2Q51.3333 54 50 54Q48.6667 54 47.6 53.2L12.3333 26.75ZM95.6667 19.1109L95.6667 81.25Q95.6667 82.0784 95.3738 82.7855Q95.0809 83.4926 94.4951 84.0784Q93.9093 84.6642 93.2022 84.9571Q92.4951 85.25 91.6667 85.25L8.33333 85.25Q7.5049 85.25 6.79779 84.9571Q6.09069 84.6642 5.50491 84.0784Q4.91911 83.4926 4.62622 82.7855Q4.33333 82.0784 4.33333 81.25L4.33333 19.1109C4.29244 18.6516 4.33233 18.1839 4.45597 17.7287Q4.52286 17.464 4.62623 17.2145Q4.87889 16.6045 5.34951 16.0848C6.2172 15.1046 7.45065 14.6416 8.66942 14.75L91.3306 14.75C92.5492 14.6416 93.7825 15.1045 94.6502 16.0845Q95.121 16.6043 95.3738 17.2145Q95.4772 17.4641 95.5441 17.7288C95.6677 18.184 95.7076 18.6516 95.6667 19.1109ZM20.3333 22.75L79.6667 22.75L50 45L20.3333 22.75Z" clip-rule="evenodd" fill="#FFFFFF" fill-opacity="1.000000" fill-rule="evenodd"/>
	</g>
</svg>
