<svg width="100.000000" height="100.000000" viewBox="0 0 100 100" fill="none" xmlns="http://www.w3.org/2000/svg" xmlns:xlink="http://www.w3.org/1999/xlink">
	<desc>
			Created with Pixso.
	</desc>
	<defs>
		<clipPath id="clip143_2334">
			<rect id="QQ" width="100.000000" height="100.000000" fill="white" fill-opacity="0"/>
		</clipPath>
	</defs>
	<g clip-path="url(#clip143_2334)">
		<path id="path" d="M49.56 92.74C41.94 92.74 34.95 90.19 30.44 86.38C28.15 87.06 25.23 88.16 23.38 89.53C21.8 90.69 22 91.88 22.28 92.36C23.53 94.47 43.73 93.71 49.56 93.05L49.56 92.74ZM49.56 92.74C57.19 92.74 64.18 90.19 68.69 86.38C70.97 87.06 73.9 88.16 75.75 89.53C77.33 90.69 77.13 91.88 76.84 92.36C75.59 94.47 55.39 93.71 49.56 93.05L49.56 92.74Z" fill="#FFFFFF" fill-opacity="1.000000" fill-rule="nonzero"/>
		<path id="path" d="M75.7 43.6C72.28 44.54 62.2 46.98 49.61 47.06C36.7 46.97 26.33 44.41 23.18 43.54C22.53 43.36 22.17 42.98 22.17 42.98C22.17 42.87 22.12 40.93 22.12 39.93C22.12 23.13 30.05 6.25 49.56 6.25C69.07 6.25 77 23.13 77 39.94C77 40.93 76.95 42.87 76.95 42.98C76.95 42.98 76.52 43.38 75.7 43.6ZM80.89 52.81C81.97 55.62 83.03 58.55 83.81 61.06C87.53 73.03 86.33 77.99 85.41 78.1C83.44 78.34 77.74 69.09 77.74 69.09C77.74 78.49 69.26 92.92 49.82 93.05L49.3 93.05C29.87 92.92 21.38 78.49 21.38 69.09C21.38 69.09 15.69 78.34 13.72 78.1C12.8 77.99 11.59 73.03 15.31 61.06C16.09 58.55 17.16 55.62 18.24 52.81C18.24 52.81 18.96 52.76 19.33 52.87C22.35 53.74 25.57 54.51 28.84 55.16C28.28 58.61 27.96 62.88 28.26 67.92C29.06 81.32 37.03 89.75 49.31 89.87L49.81 89.87C62.1 89.75 70.06 81.32 70.86 67.92C71.16 62.87 70.84 58.61 70.29 55.16C73.61 54.5 76.89 53.71 79.95 52.82C80.27 52.73 80.89 52.81 80.89 52.81ZM70.29 55.16C63.12 56.58 55.71 57.39 49.61 57.32C43.5 57.39 36 56.58 28.84 55.16C28.87 54.98 28.9 54.8 28.93 54.63C36.07 56.03 43.44 56.84 49.51 56.77C55.59 56.84 63.06 56.03 70.2 54.63C70.23 54.8 70.26 54.98 70.29 55.16ZM37.57 24.34C37.72 28.18 39.98 31.19 42.62 31.07C45.27 30.95 47.3 27.75 47.15 23.91C47.01 20.08 44.75 17.06 42.1 17.18C39.46 17.3 37.43 20.51 37.57 24.34ZM56.51 31.07C59.15 31.19 61.41 28.17 61.56 24.34C61.7 20.51 59.67 17.3 57.03 17.18C54.38 17.07 52.12 20.08 51.98 23.91C51.83 27.75 53.86 30.95 56.51 31.07ZM49.61 33.17C58.43 33.17 65.55 34.92 66.26 36.48C66.29 36.55 66.31 36.63 66.31 36.71C66.31 36.81 66.27 36.92 66.21 37.01C65.61 37.88 57.71 42.17 49.61 42.17C41.51 42.17 33.51 37.88 32.91 37.01C32.85 36.92 32.82 36.81 32.82 36.71C32.82 36.63 32.83 36.55 32.87 36.48C33.57 34.92 40.79 33.17 49.61 33.17Z" fill="#FFFFFF" fill-opacity="1.000000" fill-rule="evenodd"/>
		<path id="path" d="M45.87 24.4C45.99 25.91 45.16 27.26 44.02 27.41C42.88 27.55 41.85 26.44 41.73 24.93C41.61 23.42 42.44 22.07 43.58 21.92C44.73 21.78 45.75 22.89 45.87 24.4ZM53.14 24.91C53.38 24.49 54.97 22.28 58.27 23.09C59.14 23.3 59.54 23.61 59.62 23.73C59.75 23.91 59.78 24.16 59.65 24.51C59.4 25.2 58.88 25.18 58.6 25.04C58.41 24.96 56.12 23.42 54 25.71C53.85 25.87 53.59 25.92 53.35 25.73C53.1 25.55 53 25.17 53.14 24.91Z" fill="#FFFFFF" fill-opacity="1.000000" fill-rule="nonzero"/>
		<path id="path" d="M32.29 55.64L32.29 68.84C32.29 68.84 38.34 70.05 44.39 69.21L44.39 57.04C40.56 56.83 36.42 56.34 32.29 55.64Z" fill="#FFFFFF" fill-opacity="1.000000" fill-rule="nonzero"/>
		<path id="path" d="M76.95 42.98C76.95 42.98 65.2 46.69 49.61 46.8C34.05 46.69 22.21 42.99 22.17 42.98L18.24 52.81C28.08 55.78 40.29 57.69 49.51 57.58C58.74 57.69 71.04 55.78 80.89 52.81L76.95 42.98Z" fill="#FFFFFF" fill-opacity="1.000000" fill-rule="nonzero"/>
	</g>
</svg>
