<svg width="100.000000" height="100.000000" viewBox="0 0 100 100" fill="none" xmlns="http://www.w3.org/2000/svg" xmlns:xlink="http://www.w3.org/1999/xlink">
	<desc>
			Created with Pixso.
	</desc>
	<defs>
		<clipPath id="clip133_2091">
			<rect id="移动硬盘" width="60.000000" height="60.000000" transform="translate(20.000000 20.000000)" fill="white" fill-opacity="0"/>
		</clipPath>
		<clipPath id="clip133_2086">
			<rect id="save" width="100.000000" height="100.000000" fill="white" fill-opacity="0"/>
		</clipPath>
	</defs>
	<rect id="save" width="100.000000" height="100.000000" fill="#FFFFFF" fill-opacity="0"/>
	<g clip-path="url(#clip133_2086)">
		<g clip-path="url(#clip133_2091)">
			<path id="path" d="M68.75 27.5L31.25 27.5C29.17 27.5 27.5 29.17 27.5 31.25L27.5 68.75C27.5 70.82 29.17 72.5 31.25 72.5L68.75 72.5C70.82 72.5 72.5 70.82 72.5 68.75L72.5 31.25C72.5 29.17 70.82 27.5 68.75 27.5Z" fill="#000000" fill-opacity="0" fill-rule="nonzero"/>
			<path id="path" d="M31.25 27.5C29.17 27.5 27.5 29.17 27.5 31.25L27.5 68.75C27.5 70.82 29.17 72.5 31.25 72.5L68.75 72.5C70.82 72.5 72.5 70.82 72.5 68.75L72.5 31.25C72.5 29.17 70.82 27.5 68.75 27.5L31.25 27.5Z" stroke="#6933AC" stroke-opacity="1.000000" stroke-width="5.000000"/>
			<path id="path" d="M60 27.5L40 27.5L40 40L60 40L60 27.5Z" fill="#000000" fill-opacity="0" fill-rule="nonzero"/>
			<path id="path" d="M40 27.5L40 40L60 40L60 27.5L40 27.5Z" stroke="#6933AC" stroke-opacity="1.000000" stroke-width="5.000000" stroke-linejoin="round"/>
			<path id="path" d="M41.27 67.48L41.25 67.5C39.84 67.5 38.75 66.4 38.75 65C38.75 63.6 39.84 62.5 41.25 62.5L41.27 62.52L41.27 67.48ZM58.73 62.52L58.75 62.5C60.15 62.5 61.25 63.6 61.25 65C61.25 66.4 60.15 67.5 58.75 67.5L58.73 67.48L58.73 62.52Z" fill="#000000" fill-opacity="0" fill-rule="nonzero"/>
			<path id="path" d="M41.25 65L58.75 65" stroke="#6933AC" stroke-opacity="1.000000" stroke-width="5.000000" stroke-linejoin="round" stroke-linecap="round"/>
		</g>
	</g>
</svg>
