<svg width="100.000000" height="100.000000" viewBox="0 0 100 100" fill="none" xmlns="http://www.w3.org/2000/svg" xmlns:xlink="http://www.w3.org/1999/xlink">
	<desc>
			Created with Pixso.
	</desc>
	<defs>
		<clipPath id="clip131_1917">
			<rect id="设置" width="60.000000" height="60.000000" transform="translate(20.000000 20.000000)" fill="white" fill-opacity="0"/>
		</clipPath>
		<clipPath id="clip130_1856">
			<rect id="setting" width="100.000000" height="100.000000" fill="white" fill-opacity="0"/>
		</clipPath>
	</defs>
	<rect id="setting" width="100.000000" height="100.000000" fill="#FFFFFF" fill-opacity="0"/>
	<g clip-path="url(#clip130_1856)">
		<g clip-path="url(#clip131_1917)">
			<mask id="mask_131_1922" fill="white">
				<path id="减去顶层" d="M65.8575 38.9637C67.4205 41.2054 68.5204 43.794 69.0184 46.5909L75 46.5909L75 53.4091L69.0184 53.4091C68.5204 56.206 67.4205 58.7946 65.8575 61.0363L70.0883 65.2671L65.2671 70.0883L61.0363 65.8575C58.7946 67.4205 56.206 68.5204 53.4091 69.0184L53.4091 75L46.5909 75L46.5909 69.0184C43.794 68.5204 41.2054 67.4205 38.9637 65.8575L34.7329 70.0883L29.9117 65.2671L34.1425 61.0363C32.5795 58.7946 31.4796 56.206 30.9817 53.4091L25 53.4091L25 46.5909L30.9817 46.5909C31.4796 43.794 32.5795 41.2054 34.1425 38.9637L29.9117 34.7329L34.7329 29.9117L38.9637 34.1425C41.2054 32.5795 43.794 31.4796 46.5909 30.9817L46.5909 25L53.4091 25L53.4091 30.9817C56.206 31.4796 58.7946 32.5795 61.0363 34.1425L65.2671 29.9117L70.0883 34.7329L65.8575 38.9637ZM50 41C45.0294 41 41 45.0294 41 50C41 54.9706 45.0294 59 50 59C54.9706 59 59 54.9706 59 50C59 45.0294 54.9706 41 50 41Z" clip-rule="evenodd" fill="" fill-opacity="1.000000" fill-rule="evenodd"/>
			</mask>
			<path id="减去顶层" d="M65.8575 38.9637C67.4205 41.2054 68.5204 43.794 69.0184 46.5909L75 46.5909L75 53.4091L69.0184 53.4091C68.5204 56.206 67.4205 58.7946 65.8575 61.0363L70.0883 65.2671L65.2671 70.0883L61.0363 65.8575C58.7946 67.4205 56.206 68.5204 53.4091 69.0184L53.4091 75L46.5909 75L46.5909 69.0184C43.794 68.5204 41.2054 67.4205 38.9637 65.8575L34.7329 70.0883L29.9117 65.2671L34.1425 61.0363C32.5795 58.7946 31.4796 56.206 30.9817 53.4091L25 53.4091L25 46.5909L30.9817 46.5909C31.4796 43.794 32.5795 41.2054 34.1425 38.9637L29.9117 34.7329L34.7329 29.9117L38.9637 34.1425C41.2054 32.5795 43.794 31.4796 46.5909 30.9817L46.5909 25L53.4091 25L53.4091 30.9817C56.206 31.4796 58.7946 32.5795 61.0363 34.1425L65.2671 29.9117L70.0883 34.7329L65.8575 38.9637ZM50 41C45.0294 41 41 45.0294 41 50C41 54.9706 45.0294 59 50 59C54.9706 59 59 54.9706 59 50C59 45.0294 54.9706 41 50 41Z" clip-rule="evenodd" fill="#FFFFFF" fill-opacity="1.000000" fill-rule="evenodd" mask="url(#mask_131_1922)"/>
			<path id="减去顶层" d="M66.4727 38.5348Q68.9881 42.1422 69.7568 46.4594L69.0184 46.5909L69.0184 45.8409L75 45.8409Q75.0739 45.8409 75.1463 45.8553Q75.2188 45.8697 75.287 45.898Q75.3552 45.9262 75.4167 45.9673Q75.4781 46.0083 75.5303 46.0605Q75.5826 46.1128 75.6236 46.1742Q75.6646 46.2356 75.6929 46.3039Q75.7212 46.3721 75.7356 46.4446Q75.75 46.517 75.75 46.5909L75.75 53.4091Q75.75 53.483 75.7356 53.5554Q75.7212 53.6279 75.6929 53.6961Q75.6646 53.7644 75.6236 53.8258Q75.5826 53.8872 75.5303 53.9394Q75.4781 53.9917 75.4167 54.0327Q75.3552 54.0738 75.287 54.102Q75.2188 54.1303 75.1463 54.1447Q75.0739 54.1591 75 54.1591L69.0184 54.1591L69.0184 53.4091L69.7568 53.5406Q68.9881 57.8577 66.4727 61.4652L65.8575 61.0363L66.3878 60.5059L70.6186 64.7368Q70.6708 64.789 70.7119 64.8505Q70.7529 64.9119 70.7812 64.9801Q70.8094 65.0484 70.8238 65.1208Q70.8382 65.1933 70.8382 65.2671Q70.8382 65.341 70.8238 65.4135Q70.8094 65.4859 70.7812 65.5541Q70.7529 65.6224 70.7118 65.6838Q70.6708 65.7452 70.6186 65.7975L65.7975 70.6186Q65.7452 70.6708 65.6838 70.7118Q65.6224 70.7529 65.5541 70.7812Q65.4859 70.8094 65.4135 70.8238Q65.341 70.8382 65.2671 70.8382Q65.1933 70.8382 65.1208 70.8238Q65.0484 70.8094 64.9801 70.7812Q64.9119 70.7529 64.8505 70.7119Q64.789 70.6708 64.7368 70.6186L60.5059 66.3878L61.0363 65.8575L61.4652 66.4727Q57.8577 68.9881 53.5406 69.7568L53.4091 69.0184L54.1591 69.0184L54.1591 75Q54.1591 75.0739 54.1447 75.1463Q54.1303 75.2188 54.102 75.287Q54.0738 75.3552 54.0327 75.4167Q53.9917 75.4781 53.9394 75.5303Q53.8872 75.5826 53.8258 75.6236Q53.7644 75.6646 53.6961 75.6929Q53.6279 75.7212 53.5554 75.7356Q53.483 75.75 53.4091 75.75L46.5909 75.75Q46.517 75.75 46.4446 75.7356Q46.3721 75.7212 46.3039 75.6929Q46.2356 75.6646 46.1742 75.6236Q46.1128 75.5826 46.0605 75.5303Q46.0083 75.4781 45.9673 75.4167Q45.9262 75.3552 45.898 75.287Q45.8697 75.2188 45.8553 75.1463Q45.8409 75.0739 45.8409 75L45.8409 69.0184L46.5909 69.0184L46.4594 69.7568Q42.1422 68.9881 38.5348 66.4727L38.9637 65.8575L39.4941 66.3878L35.2632 70.6186Q35.211 70.6708 35.1495 70.7119Q35.0881 70.7529 35.0199 70.7812Q34.9516 70.8094 34.8792 70.8238Q34.8067 70.8382 34.7329 70.8382Q34.659 70.8382 34.5866 70.8238Q34.5141 70.8094 34.4459 70.7812Q34.3776 70.7529 34.3162 70.7118Q34.2548 70.6708 34.2025 70.6186L29.3814 65.7975Q29.3292 65.7452 29.2881 65.6838Q29.2471 65.6224 29.2188 65.5541Q29.1906 65.4859 29.1761 65.4134Q29.1617 65.341 29.1617 65.2671Q29.1617 65.1933 29.1761 65.1208Q29.1906 65.0484 29.2188 64.9801Q29.2471 64.9119 29.2881 64.8504Q29.3292 64.789 29.3814 64.7368L33.6122 60.5059L34.1425 61.0363L33.5273 61.4652Q31.0119 57.8578 30.2433 53.5406L30.9817 53.4091L30.9817 54.1591L25 54.1591Q24.9261 54.1591 24.8537 54.1447Q24.7812 54.1303 24.713 54.102Q24.6447 54.0738 24.5833 54.0327Q24.5219 53.9917 24.4697 53.9394Q24.4174 53.8872 24.3764 53.8258Q24.3354 53.7644 24.3071 53.6961Q24.2788 53.6279 24.2644 53.5554Q24.25 53.483 24.25 53.4091L24.25 46.5909Q24.25 46.517 24.2644 46.4446Q24.2788 46.3721 24.3071 46.3039Q24.3354 46.2356 24.3764 46.1742Q24.4174 46.1128 24.4697 46.0605Q24.5219 46.0083 24.5833 45.9673Q24.6447 45.9262 24.713 45.898Q24.7812 45.8697 24.8537 45.8553Q24.9261 45.8409 25 45.8409L30.9817 45.8409L30.9817 46.5909L30.2433 46.4594Q31.0119 42.1422 33.5273 38.5348L34.1425 38.9637L33.6122 39.4941L29.3814 35.2632Q29.3292 35.211 29.2881 35.1495Q29.2471 35.0881 29.2188 35.0199Q29.1906 34.9516 29.1761 34.8792Q29.1617 34.8067 29.1617 34.7329Q29.1617 34.659 29.1762 34.5866Q29.1906 34.5141 29.2188 34.4459Q29.2471 34.3776 29.2881 34.3162Q29.3292 34.2548 29.3814 34.2025L34.2025 29.3814Q34.2548 29.3292 34.3162 29.2881Q34.3776 29.2471 34.4459 29.2188Q34.5141 29.1906 34.5866 29.1761Q34.659 29.1617 34.7329 29.1617Q34.8067 29.1617 34.8792 29.1761Q34.9516 29.1906 35.0199 29.2188Q35.0881 29.2471 35.1495 29.2881Q35.211 29.3292 35.2632 29.3814L39.4941 33.6122L38.9637 34.1425L38.5348 33.5273Q42.1422 31.012 46.4594 30.2433L46.5909 30.9817L45.8409 30.9817L45.8409 25Q45.8409 24.9261 45.8553 24.8537Q45.8697 24.7812 45.898 24.713Q45.9262 24.6447 45.9673 24.5833Q46.0083 24.5219 46.0605 24.4697Q46.1128 24.4174 46.1742 24.3764Q46.2356 24.3354 46.3039 24.3071Q46.3721 24.2788 46.4446 24.2644Q46.517 24.25 46.5909 24.25L53.4091 24.25Q53.483 24.25 53.5554 24.2644Q53.6279 24.2788 53.6961 24.3071Q53.7644 24.3354 53.8258 24.3764Q53.8872 24.4174 53.9394 24.4697Q53.9917 24.5219 54.0327 24.5833Q54.0738 24.6447 54.102 24.713Q54.1303 24.7812 54.1447 24.8537Q54.1591 24.9261 54.1591 25L54.1591 30.9817L53.4091 30.9817L53.5406 30.2433Q57.8578 31.012 61.4652 33.5273L61.0363 34.1425L60.5059 33.6122L64.7368 29.3814Q64.789 29.3292 64.8504 29.2881Q64.9119 29.2471 64.9801 29.2188Q65.0484 29.1906 65.1208 29.1761Q65.1933 29.1617 65.2671 29.1617Q65.341 29.1617 65.4134 29.1761Q65.4859 29.1906 65.5541 29.2188Q65.6224 29.2471 65.6838 29.2881Q65.7452 29.3292 65.7975 29.3814L70.6186 34.2025Q70.6708 34.2548 70.7118 34.3162Q70.7529 34.3776 70.7812 34.4459Q70.8094 34.5141 70.8238 34.5866Q70.8382 34.659 70.8382 34.7329Q70.8382 34.8067 70.8238 34.8792Q70.8094 34.9516 70.7812 35.0199Q70.7529 35.0881 70.7119 35.1495Q70.6708 35.211 70.6186 35.2632L66.3878 39.4941L65.8575 38.9637L66.4727 38.5348ZM65.2423 39.3927Q65.2048 39.339 65.1772 39.2795Q65.1496 39.2201 65.1328 39.1568Q65.1159 39.0935 65.1103 39.0282Q65.1046 38.9629 65.1104 38.8977Q65.1162 38.8324 65.1332 38.7691Q65.1502 38.7058 65.1779 38.6465Q65.2056 38.5871 65.2432 38.5334Q65.2808 38.4798 65.3272 38.4334L69.5579 34.2025L70.0883 34.7329L69.5579 35.2632L64.7368 30.4421L65.2671 29.9117L65.7975 30.4421L61.5666 34.6729Q61.5202 34.7192 61.4666 34.7568Q61.4129 34.7944 61.3535 34.8221Q61.2942 34.8498 61.2309 34.8668Q61.1676 34.8838 61.1024 34.8896Q61.0371 34.8954 60.9718 34.8897Q60.9065 34.8841 60.8432 34.8672Q60.7799 34.8504 60.7205 34.8228Q60.661 34.7952 60.6073 34.7577Q57.2703 32.4309 53.2776 31.7201Q53.2131 31.7086 53.1516 31.6861Q53.09 31.6636 53.0333 31.6307Q52.9766 31.5979 52.9264 31.5557Q52.8763 31.5135 52.8342 31.4633Q52.7921 31.413 52.7594 31.3563Q52.7266 31.2995 52.7042 31.2379Q52.6819 31.1763 52.6705 31.1117Q52.6591 31.0472 52.6591 30.9817L52.6591 25L53.4091 25L53.4091 25.75L46.5909 25.75L46.5909 25L47.3409 25L47.3409 30.9817Q47.3409 31.0472 47.3295 31.1117Q47.3181 31.1763 47.2958 31.2379Q47.2734 31.2995 47.2406 31.3563Q47.2079 31.413 47.1658 31.4633Q47.1237 31.5135 47.0736 31.5557Q47.0234 31.5979 46.9667 31.6307Q46.91 31.6636 46.8484 31.6861Q46.7869 31.7086 46.7224 31.7201Q42.7297 32.4309 39.3927 34.7577Q39.339 34.7952 39.2795 34.8228Q39.2201 34.8504 39.1568 34.8672Q39.0935 34.8841 39.0282 34.8897Q38.9629 34.8954 38.8977 34.8896Q38.8324 34.8838 38.7691 34.8668Q38.7058 34.8498 38.6465 34.8221Q38.5871 34.7944 38.5334 34.7568Q38.4798 34.7192 38.4334 34.6729L34.2025 30.4421L34.7329 29.9117L35.2632 30.4421L30.4421 35.2632L29.9117 34.7329L30.4421 34.2025L34.6728 38.4334Q34.7192 38.4798 34.7568 38.5334Q34.7944 38.5871 34.8221 38.6465Q34.8498 38.7058 34.8668 38.7691Q34.8838 38.8324 34.8896 38.8977Q34.8954 38.9629 34.8897 39.0282Q34.8841 39.0935 34.8672 39.1568Q34.8504 39.2201 34.8228 39.2796Q34.7952 39.339 34.7577 39.3927Q32.4309 42.7297 31.72 46.7224Q31.7086 46.7869 31.6861 46.8484Q31.6635 46.91 31.6307 46.9667Q31.5979 47.0234 31.5557 47.0736Q31.5135 47.1237 31.4633 47.1658Q31.413 47.2079 31.3563 47.2406Q31.2995 47.2734 31.2379 47.2958Q31.1763 47.3181 31.1117 47.3295Q31.0472 47.3409 30.9817 47.3409L25 47.3409L25 46.5909L25.75 46.5909L25.75 53.4091L25 53.4091L25 52.6591L30.9817 52.6591Q31.0472 52.6591 31.1117 52.6705Q31.1763 52.6819 31.2379 52.7042Q31.2995 52.7266 31.3563 52.7594Q31.413 52.7921 31.4633 52.8342Q31.5135 52.8763 31.5557 52.9264Q31.5979 52.9766 31.6307 53.0333Q31.6635 53.09 31.6861 53.1516Q31.7086 53.2131 31.72 53.2776Q32.4309 57.2703 34.7577 60.6073Q34.7952 60.661 34.8228 60.7205Q34.8504 60.7799 34.8672 60.8432Q34.8841 60.9065 34.8897 60.9718Q34.8954 61.0371 34.8896 61.1024Q34.8838 61.1676 34.8668 61.2309Q34.8498 61.2942 34.8221 61.3535Q34.7944 61.4129 34.7568 61.4666Q34.7192 61.5202 34.6728 61.5666L30.4421 65.7975L29.9117 65.2671L30.4421 64.7368L35.2632 69.5579L34.7329 70.0883L34.2025 69.5579L38.4334 65.3272Q38.4798 65.2808 38.5334 65.2432Q38.5871 65.2056 38.6465 65.1779Q38.7058 65.1502 38.7691 65.1332Q38.8324 65.1162 38.8977 65.1104Q38.9629 65.1046 39.0282 65.1103Q39.0935 65.1159 39.1568 65.1328Q39.2201 65.1496 39.2795 65.1772Q39.339 65.2048 39.3927 65.2423Q42.7298 67.5691 46.7224 68.28Q46.7869 68.2915 46.8484 68.314Q46.91 68.3365 46.9667 68.3693Q47.0234 68.4022 47.0736 68.4444Q47.1237 68.4865 47.1658 68.5368Q47.2079 68.587 47.2406 68.6438Q47.2734 68.7006 47.2958 68.7622Q47.3181 68.8237 47.3295 68.8883Q47.3409 68.9528 47.3409 69.0184L47.3409 75L46.5909 75L46.5909 74.25L53.4091 74.25L53.4091 75L52.6591 75L52.6591 69.0184Q52.6591 68.9528 52.6705 68.8883Q52.6819 68.8237 52.7042 68.7622Q52.7266 68.7006 52.7594 68.6438Q52.7921 68.587 52.8342 68.5368Q52.8763 68.4865 52.9264 68.4444Q52.9766 68.4022 53.0333 68.3693Q53.09 68.3365 53.1516 68.314Q53.2131 68.2915 53.2777 68.28Q57.2702 67.5691 60.6073 65.2423Q60.661 65.2048 60.7205 65.1772Q60.7799 65.1496 60.8432 65.1328Q60.9065 65.1159 60.9718 65.1103Q61.0371 65.1046 61.1023 65.1104Q61.1676 65.1162 61.2309 65.1332Q61.2942 65.1502 61.3535 65.1779Q61.4129 65.2056 61.4666 65.2432Q61.5202 65.2808 61.5666 65.3272L65.7975 69.5579L65.2671 70.0883L64.7368 69.5579L69.5579 64.7368L70.0883 65.2671L69.5579 65.7975L65.3272 61.5666Q65.2808 61.5202 65.2432 61.4666Q65.2056 61.4129 65.1779 61.3535Q65.1502 61.2942 65.1332 61.2309Q65.1162 61.1676 65.1104 61.1023Q65.1046 61.0371 65.1103 60.9718Q65.1159 60.9065 65.1328 60.8432Q65.1496 60.7799 65.1772 60.7205Q65.2048 60.661 65.2423 60.6073Q67.5691 57.2702 68.28 53.2776Q68.2915 53.2131 68.314 53.1516Q68.3365 53.09 68.3693 53.0333Q68.4022 52.9766 68.4444 52.9264Q68.4865 52.8763 68.5368 52.8342Q68.587 52.7921 68.6438 52.7594Q68.7006 52.7266 68.7622 52.7042Q68.8237 52.6819 68.8883 52.6705Q68.9528 52.6591 69.0184 52.6591L75 52.6591L75 53.4091L74.25 53.4091L74.25 46.5909L75 46.5909L75 47.3409L69.0184 47.3409Q68.9528 47.3409 68.8883 47.3295Q68.8237 47.3181 68.7622 47.2958Q68.7006 47.2734 68.6438 47.2406Q68.587 47.2079 68.5368 47.1658Q68.4865 47.1237 68.4444 47.0736Q68.4022 47.0234 68.3693 46.9667Q68.3365 46.91 68.314 46.8484Q68.2915 46.7869 68.28 46.7224Q67.5691 42.7298 65.2423 39.3927ZM50 41.75Q46.5827 41.75 44.1664 44.1664Q41.75 46.5827 41.75 50Q41.75 53.4173 44.1664 55.8336Q46.5827 58.25 50 58.25Q53.4173 58.25 55.8336 55.8336Q58.25 53.4173 58.25 50Q58.25 46.5827 55.8336 44.1664Q53.4173 41.75 50 41.75ZM50 40.25Q54.0386 40.25 56.8943 43.1057Q59.75 45.9614 59.75 50Q59.75 54.0386 56.8943 56.8943Q54.0386 59.75 50 59.75Q45.9614 59.75 43.1057 56.8943Q40.25 54.0386 40.25 50Q40.25 45.9614 43.1057 43.1057Q45.9614 40.25 50 40.25Z" fill="#FFFFFF" fill-opacity="1.000000" fill-rule="nonzero"/>
		</g>
	</g>
</svg>
