<svg width="100.000000" height="100.000000" viewBox="0 0 100 100" fill="none" xmlns="http://www.w3.org/2000/svg" xmlns:xlink="http://www.w3.org/1999/xlink">
	<desc>
			Created with Pixso.
	</desc>
	<defs>
		<clipPath id="clip143_2335">
			<rect id="电话" width="100.000000" height="100.000000" fill="white" fill-opacity="0"/>
		</clipPath>
	</defs>
	<g clip-path="url(#clip143_2335)">
		<path id="path" d="M35.4 16.01C36.92 16.01 38.31 16.83 39.05 18.15L44.14 27.33C44.81 28.53 44.84 29.99 44.23 31.22L39.32 41.04C39.32 41.04 40.74 48.35 46.7 54.31C52.65 60.26 59.94 61.66 59.94 61.66L69.76 56.75C70.99 56.14 72.45 56.17 73.65 56.84L82.85 61.96C84.18 62.69 85 64.09 85 65.6L85 76.17C85 81.55 80 85.44 74.9 83.72C64.42 80.18 48.16 73.45 37.86 63.15C27.55 52.84 20.82 36.58 17.29 26.11C15.57 21.01 19.45 16.01 24.84 16.01L35.4 16.01Z" fill="#FFFFFF" fill-opacity="1.000000" fill-rule="nonzero"/>
		<path id="path" d="M39.05 18.15L44.14 27.33C44.81 28.53 44.84 29.99 44.23 31.22L39.32 41.04C39.32 41.04 40.74 48.35 46.7 54.31C52.65 60.26 59.94 61.66 59.94 61.66L69.76 56.75C70.99 56.14 72.45 56.17 73.65 56.84L82.85 61.96C84.18 62.69 85 64.09 85 65.6L85 76.17C85 81.55 80 85.44 74.9 83.72C64.42 80.18 48.16 73.45 37.86 63.15C27.55 52.84 20.82 36.58 17.29 26.11C15.57 21.01 19.45 16.01 24.84 16.01L35.4 16.01C36.92 16.01 38.31 16.83 39.05 18.15Z" stroke="#FFFFFF" stroke-opacity="1.000000" stroke-width="1.500000" stroke-linejoin="round"/>
	</g>
</svg>
