<svg width="100.000000" height="100.000000" viewBox="0 0 100 100" fill="none" xmlns="http://www.w3.org/2000/svg" xmlns:xlink="http://www.w3.org/1999/xlink">
	<desc>
			Created with Pixso.
	</desc>
	<defs>
		<clipPath id="clip143_2336">
			<rect id="微信" width="100.000000" height="100.000000" fill="white" fill-opacity="0"/>
		</clipPath>
	</defs>
	<g clip-path="url(#clip143_2336)">
		<path id="path" d="" fill="#FFFFFF" fill-opacity="0" fill-rule="nonzero"/>
		<path id="path" d="M81.05 45.14L81.07 45.16C81.11 47.4 79.38 49.19 77.14 49.23C74.9 49.27 73.11 47.54 73.07 45.3L73.09 45.28L81.05 45.14ZM49.24 74.74L49.26 74.71C51.46 74.3 53.51 75.71 53.93 77.91C54.34 80.11 52.93 82.16 50.73 82.58L50.71 82.56L49.24 74.74Z" fill="#FFFFFF" fill-opacity="0" fill-rule="nonzero"/>
		<path id="path" d="M77.07 45.23C76.75 27.09 61.95 12.5 43.75 12.5C25.34 12.5 10.41 27.42 10.41 45.83C10.41 54.52 13.74 62.43 19.18 68.36L16.68 83.38L31.51 77.02C38.04 79.19 44.2 79.73 50 78.64" stroke="#FFFFFF" stroke-opacity="1.000000" stroke-width="8.000000" stroke-linejoin="round" stroke-linecap="round"/>
		<path id="path" d="M31.51 42.63C34.09 42.63 36.19 40.52 36.19 37.91C36.19 35.3 34.09 33.19 31.51 33.19C28.92 33.19 26.82 35.3 26.82 37.91C26.82 40.52 28.92 42.63 31.51 42.63Z" fill="#FFFFFF" fill-opacity="1.000000" fill-rule="nonzero"/>
		<path id="path" d="M50.26 42.63C52.84 42.63 54.94 40.52 54.94 37.91C54.94 35.3 52.84 33.19 50.26 33.19C47.67 33.19 45.57 35.3 45.57 37.91C45.57 40.52 47.67 42.63 50.26 42.63Z" fill="#FFFFFF" fill-opacity="1.000000" fill-rule="nonzero"/>
		<path id="path" d="" fill="#FFFFFF" fill-opacity="0" fill-rule="nonzero"/>
		<path id="path" d="M78.36 80L78.36 79.97C80.16 78.63 82.62 79 83.96 80.79C85.3 82.59 84.93 85.05 83.14 86.39L83.11 86.39L78.36 80ZM91.11 76.62L91.12 76.64C90.16 78.67 87.82 79.51 85.79 78.56C83.77 77.6 82.93 75.26 83.88 73.23L83.91 73.22L91.11 76.62Z" fill="#FFFFFF" fill-opacity="0" fill-rule="nonzero"/>
		<path id="path" d="M80.75 83.18C77.11 85.89 72.59 87.5 67.7 87.5C55.62 87.5 45.83 77.7 45.83 65.62C45.83 53.54 55.62 43.75 67.7 43.75C79.78 43.75 89.58 53.54 89.58 65.62C89.58 68.95 88.83 72.11 87.5 74.94" stroke="#FFFFFF" stroke-opacity="1.000000" stroke-width="8.000000" stroke-linejoin="round" stroke-linecap="round"/>
		<path id="path" d="" fill="#FFFFFF" fill-opacity="0" fill-rule="nonzero"/>
		<path id="path" d="M83.58 75.61L83.55 75.59C83.19 73.38 84.64 71.36 86.85 70.99C89.06 70.63 91.08 72.08 91.45 74.29L91.43 74.31L83.58 75.61ZM79.02 86.77L78.99 86.78C76.98 85.79 76.17 83.44 77.15 81.43C78.14 79.41 80.49 78.6 82.5 79.59L82.51 79.61L79.02 86.77Z" fill="#FFFFFF" fill-opacity="0" fill-rule="nonzero"/>
		<path id="path" d="M87.5 74.94L89.58 87.5L80.75 83.18" stroke="#FFFFFF" stroke-opacity="1.000000" stroke-width="8.000000" stroke-linejoin="round" stroke-linecap="round"/>
		<path id="path" d="M74.34 64.16C72.4 64.16 70.83 62.58 70.83 60.62C70.83 58.66 72.4 57.08 74.34 57.08C76.29 57.08 77.86 58.66 77.86 60.62C77.86 62.58 76.29 64.16 74.34 64.16Z" fill="#FFFFFF" fill-opacity="1.000000" fill-rule="nonzero"/>
		<path id="path" d="M60.28 64.16C58.34 64.16 56.77 62.58 56.77 60.62C56.77 58.66 58.34 57.08 60.28 57.08C62.22 57.08 63.8 58.66 63.8 60.62C63.8 62.58 62.22 64.16 60.28 64.16Z" fill="#FFFFFF" fill-opacity="1.000000" fill-rule="nonzero"/>
	</g>
</svg>
